<!-- <svg xmlns="http://www.w3.org/2000/svg" viewBox="0 0 113.65 36.28"><defs><style>.cls-1{isolation:isolate;}.cls-2{mix-blend-mode:multiply;}.cls-3{fill:#fff;}</style></defs><title>CSUN_footer_logo</title><g class="cls-1"><g id="Layer_2" data-name="Layer 2"><g id="Layer_1-2" data-name="Layer 1"><g class="cls-2"><path class="cls-3" d="M92.62,5.18V6.64c3.74.43,4.56,1.81,4.56,5.47V23.61H97L83,5.18H64.64V6.64c3.74.43,4.56,1.81,4.56,5.47v9.8c0,3-.59,4.41-1.89,5.75a6.11,6.11,0,0,1-4.52,1.69c-4.21,0-6.81-2-6.81-6.57V8.37c0-1.3.71-1.57,3.42-1.69V5.18H43.46a29,29,0,0,1-3.28-.12c-.82-.13-1.78-.49-2.59-.64a14.89,14.89,0,0,0-2.73-.22,8.18,8.18,0,0,0-8.49,8.57c0,4.84,3.94,6.37,7.91,7.63,4.52,1.5,6.26,2.52,6.26,5.23,0,2.09-1.42,4.41-4.84,4.41-3.27,0-5.7-2-7.71-6.44H26.05v8.13h1.67L29,30.57a15.36,15.36,0,0,0,6.1,1.18c6.65,0,9.25-4.45,9.25-8.81,0-4.88-3.86-6.41-7.47-7.59-4.33-1.38-6.26-2.24-6.26-4.92a3.93,3.93,0,0,1,4.17-4.13c2.87,0,5.28,1,6.57,4.65H43v-.72A3.51,3.51,0,0,1,46.8,6.71a3.51,3.51,0,0,1,3.75,3.51V23c0,5.78,4,8.74,10.62,8.74s10-3.82,10-8.89V10.22a3.75,3.75,0,0,1,7.48,0V24.11c0,3.74-.51,5-4,5.51v1.46H84.87V29.62c-3.78-.47-4.25-1.81-4.25-5.51V10.94h.14L96.54,31.75h2.58V12.11c0-3.66.28-5,3.78-5.47V5.18Z"/><path class="cls-3" d="M14.47,29.29C10.31,29.29,6,25.53,6,17.68,6,10,9.55,6.1,13.6,6.1c3.45,0,6.06,2.9,7.65,7.69H23V4.4H21.44L20.29,6.1a14.15,14.15,0,0,0-6.58-1.7A13.5,13.5,0,0,0,0,18.31c0,7.81,4.8,13.44,13,13.44,5.67,0,9.2-3.14,11.06-7.42l-1.51-.71c-1.86,3.77-4.44,5.68-8.13,5.68"/></g><rect class="cls-3" x="112.87" width="0.78" height="36.28"/></g></g></g></svg> -->
<svg version="1.1" xmlns="http://www.w3.org/2000/svg" xmlns:xlink="http://www.w3.org/1999/xlink" xmlns:a="http://ns.adobe.com/AdobeSVGViewerExtensions/3.0/" x="0px" y="0px" width="220.2px" height="260.2px" viewBox="0 0 22.2 26.2" style="enable-background:new 0 0 22.2 26.2;"
         xml:space="preserve">

         <defs>

           <linearGradient id="Gradient" x1="0%" y1="0%" x2="0" y2="100%">

             <stop offset="0%" stop-color="#DBE8FF">
               <animate attributeName="stop-color" values="#DBE8FF;#8fb9ff;#8fb9ff;#8fb9ff;#8fb9ff;#8fb9ff;#DBE8FF;" dur="7s" repeatCount="indefinite" />
             </stop>
             <stop offset="50%" stop-color="#DBE8FF">
               <animate attributeName="stop-color" values="#DBE8FF;#DBE8FF;#8fb9ff;#8fb9ff;#8fb9ff;#DBE8FF;#DBE8FF;" dur="7s" repeatCount="indefinite" />
             </stop>
             <stop offset="100%" stop-color="#DBE8FF">
               <animate attributeName="stop-color" values="#8fb9ff;#DBE8FF;#DBE8FF;#8fb9ff;#DBE8FF;#DBE8FF;#8fb9ff;" dur="7s" repeatCount="indefinite" />
             </stop>
           </linearGradient>

         </defs>

         <g transform="translate(0.000000,1044.000000) scale(0.100000,-0.100000)">
           <path class="st0" fill="url(#Gradient)" d="M114,10438.3c3.6-1.9,7.7-4.6,25.1-15.7c19.5-12.5,35.3-22.6,50.1-31.8c6.6-4.1,13.9-8.7,16.1-10.2
   c4-2.6,13.5-8.5,15.7-9.7c0.7-0.4,1-0.7,0.9-1c-0.1-0.2-0.3-30.2-0.3-66.6c-0.3-65.7-0.3-66.2-0.8-66.6c-0.3-0.2-2-1.3-3.7-2.5
   c-1.8-1.2-9.1-5.8-16.5-10.5c-45.4-29-66.2-42.1-70.4-44.4c-2.7-1.5-3.4-1.6-3.8-0.9c-0.5,1.1-0.3,175.6,0.2,176
   c0.3,0.2,18.7-11.1,28.2-17.4c2.9-1.9,3.2-2.1,3.3-3c0.1-0.5,0.2-10.5,0.3-22.1c0.1-11.6,0.2-21.9,0.3-22.9l0.1-1.7l3.6,1.9
   c2,1.1,8.6,4.7,14.8,8.2l11.2,6.3l-0.1,23.6l-0.1,23.6l-10,6.3c-5.4,3.5-18.6,11.8-29.2,18.5c-21.6,13.8-31.9,20.2-35.6,22.4
   l-2.5,1.5l-1.1-0.6c-2.1-1.1-6.4-3.8-18.1-11.1c-14.3-9-45.1-28.4-53-33.4l-5.9-3.6l0.1-23.6l0.1-23.6l11.4-6.3
   c6.3-3.5,13-7.2,14.8-8.2l3.3-1.8v4.9c0.3,40.2,0.3,42.1,0.8,42.5c0.9,0.7,30.7,19.9,31.1,20c0.3,0.2,0.4-0.2,0.6-3.7
   c0.3-5.1,0.3-170.9,0-172.1c-0.1-0.7-0.3-1-0.6-1c-0.7,0-5.8,2.7-11.1,6.1c-7,4.4-36.1,23-47.6,30.4c-5.3,3.5-10.9,7-12.3,7.8
   c-1.5,0.8-7.2,4.4-12.8,8l-10,6.5l-0.2,2.1c-0.1,1.2-0.2,31.2-0.3,66.8l-0.1,64.8l1.9,1.2c1,0.7,5.4,3.4,9.8,6.2
   c11.9,7.6,20.8,13.3,33.7,21.4c6.4,4.1,20.4,12.9,31,19.6c29.9,18.9,33.4,21.1,34.3,21.1C111.1,10439.7,112.5,10439,114,10438.3z" />
         </g>
       </svg>
